<mxfile host="app.diagrams.net" modified="2024-04-22T08:17:20.994Z" agent="Mozilla/5.0 (Macintosh; Intel Mac OS X 10_15_7) AppleWebKit/537.36 (KHTML, like Gecko) Chrome/121.0.0.0 Safari/537.36" etag="SNqCI7h9G4UBEqX6SnM0" version="24.2.7" type="device">
  <diagram name="Страница — 1" id="pEUNd-ivDd0we2BU7ait">
    <mxGraphModel dx="1041" dy="604" grid="1" gridSize="10" guides="1" tooltips="1" connect="1" arrows="1" fold="1" page="1" pageScale="1" pageWidth="827" pageHeight="1169" math="0" shadow="0">
      <root>
        <mxCell id="0" />
        <mxCell id="1" parent="0" />
        <mxCell id="C3Bd5nNhJZMPWf8011Kq-1" value="&lt;span style=&quot;color: rgb(0, 0, 0); font-family: Golos, Arial, sans-serif; font-size: 18px; font-style: normal; font-variant-ligatures: normal; font-variant-caps: normal; font-weight: 400; letter-spacing: normal; orphans: 2; text-align: start; text-indent: 0px; text-transform: none; widows: 2; word-spacing: 0px; -webkit-text-stroke-width: 0px; background-color: rgb(255, 255, 255); text-decoration-thickness: initial; text-decoration-style: initial; text-decoration-color: initial; float: none; display: inline !important;&quot;&gt;Обработка заказа на производство кондитерских изделий&lt;/span&gt;" style="swimlane;html=1;startSize=20;fontStyle=0;collapsible=0;horizontal=0;swimlaneLine=1;swimlaneFillColor=#ffffff;strokeWidth=2;whiteSpace=wrap;" parent="1" vertex="1">
          <mxGeometry x="9" y="1" width="3180" height="1059" as="geometry" />
        </mxCell>
        <mxCell id="C3Bd5nNhJZMPWf8011Kq-2" value="Отдел продаж&lt;br&gt;" style="swimlane;html=1;startSize=20;fontStyle=0;collapsible=0;horizontal=0;swimlaneLine=1;swimlaneFillColor=#ffffff;strokeWidth=2;whiteSpace=wrap;" parent="C3Bd5nNhJZMPWf8011Kq-1" vertex="1">
          <mxGeometry x="21" width="3159" height="140" as="geometry" />
        </mxCell>
        <mxCell id="C3Bd5nNhJZMPWf8011Kq-7" value="Поступление&amp;nbsp;&lt;br&gt;заявки" style="points=[[0.145,0.145,0],[0.5,0,0],[0.855,0.145,0],[1,0.5,0],[0.855,0.855,0],[0.5,1,0],[0.145,0.855,0],[0,0.5,0]];shape=mxgraph.bpmn.event;html=1;verticalLabelPosition=bottom;labelBackgroundColor=#ffffff;verticalAlign=top;align=center;perimeter=ellipsePerimeter;outlineConnect=0;aspect=fixed;outline=standard;symbol=message;" parent="C3Bd5nNhJZMPWf8011Kq-2" vertex="1">
          <mxGeometry x="40" y="45" width="50" height="50" as="geometry" />
        </mxCell>
        <mxCell id="C3Bd5nNhJZMPWf8011Kq-8" value="Зафиксировать&lt;br&gt;заявку" style="points=[[0.25,0,0],[0.5,0,0],[0.75,0,0],[1,0.25,0],[1,0.5,0],[1,0.75,0],[0.75,1,0],[0.5,1,0],[0.25,1,0],[0,0.75,0],[0,0.5,0],[0,0.25,0]];shape=mxgraph.bpmn.task;whiteSpace=wrap;rectStyle=rounded;size=10;html=1;container=1;expand=0;collapsible=0;taskMarker=manual;" parent="C3Bd5nNhJZMPWf8011Kq-2" vertex="1">
          <mxGeometry x="160" y="30" width="120" height="80" as="geometry" />
        </mxCell>
        <mxCell id="C3Bd5nNhJZMPWf8011Kq-9" value="" style="edgeStyle=elbowEdgeStyle;fontSize=12;html=1;endArrow=blockThin;endFill=1;rounded=0;" parent="C3Bd5nNhJZMPWf8011Kq-2" edge="1">
          <mxGeometry width="160" relative="1" as="geometry">
            <mxPoint x="90" y="69.5" as="sourcePoint" />
            <mxPoint x="160" y="70" as="targetPoint" />
          </mxGeometry>
        </mxCell>
        <mxCell id="C3Bd5nNhJZMPWf8011Kq-10" value="Передать заявку в производство" style="points=[[0.25,0,0],[0.5,0,0],[0.75,0,0],[1,0.25,0],[1,0.5,0],[1,0.75,0],[0.75,1,0],[0.5,1,0],[0.25,1,0],[0,0.75,0],[0,0.5,0],[0,0.25,0]];shape=mxgraph.bpmn.task;whiteSpace=wrap;rectStyle=rounded;size=10;html=1;container=1;expand=0;collapsible=0;taskMarker=manual;" parent="C3Bd5nNhJZMPWf8011Kq-2" vertex="1">
          <mxGeometry x="330" y="30" width="120" height="80" as="geometry" />
        </mxCell>
        <mxCell id="C3Bd5nNhJZMPWf8011Kq-11" value="" style="edgeStyle=elbowEdgeStyle;fontSize=12;html=1;endArrow=blockThin;endFill=1;rounded=0;entryX=0;entryY=0.5;entryDx=0;entryDy=0;entryPerimeter=0;" parent="C3Bd5nNhJZMPWf8011Kq-2" target="C3Bd5nNhJZMPWf8011Kq-10" edge="1">
          <mxGeometry width="160" relative="1" as="geometry">
            <mxPoint x="280" y="69.5" as="sourcePoint" />
            <mxPoint x="350" y="70" as="targetPoint" />
            <Array as="points">
              <mxPoint x="320" y="70" />
            </Array>
          </mxGeometry>
        </mxCell>
        <mxCell id="30ngk3Q0lwv7aPMlWF68-82" value="Поступление&amp;nbsp;&lt;br&gt;отчета о производсте" style="points=[[0.145,0.145,0],[0.5,0,0],[0.855,0.145,0],[1,0.5,0],[0.855,0.855,0],[0.5,1,0],[0.145,0.855,0],[0,0.5,0]];shape=mxgraph.bpmn.event;html=1;verticalLabelPosition=middle;labelBackgroundColor=#ffffff;verticalAlign=middle;align=right;perimeter=ellipsePerimeter;outlineConnect=0;aspect=fixed;outline=standard;symbol=message;labelPosition=left;" parent="C3Bd5nNhJZMPWf8011Kq-2" vertex="1">
          <mxGeometry x="2832" y="39" width="50" height="50" as="geometry" />
        </mxCell>
        <mxCell id="30ngk3Q0lwv7aPMlWF68-86" value="Сформировать команду на отгрузку" style="points=[[0.25,0,0],[0.5,0,0],[0.75,0,0],[1,0.25,0],[1,0.5,0],[1,0.75,0],[0.75,1,0],[0.5,1,0],[0.25,1,0],[0,0.75,0],[0,0.5,0],[0,0.25,0]];shape=mxgraph.bpmn.task;whiteSpace=wrap;rectStyle=rounded;size=10;html=1;container=1;expand=0;collapsible=0;taskMarker=manual;" parent="C3Bd5nNhJZMPWf8011Kq-2" vertex="1">
          <mxGeometry x="2987" y="24" width="120" height="80" as="geometry" />
        </mxCell>
        <mxCell id="30ngk3Q0lwv7aPMlWF68-87" style="edgeStyle=orthogonalEdgeStyle;rounded=0;orthogonalLoop=1;jettySize=auto;html=1;exitX=1;exitY=0.5;exitDx=0;exitDy=0;exitPerimeter=0;entryX=0;entryY=0.5;entryDx=0;entryDy=0;entryPerimeter=0;" parent="C3Bd5nNhJZMPWf8011Kq-2" source="30ngk3Q0lwv7aPMlWF68-82" target="30ngk3Q0lwv7aPMlWF68-86" edge="1">
          <mxGeometry relative="1" as="geometry" />
        </mxCell>
        <mxCell id="C3Bd5nNhJZMPWf8011Kq-3" value="Отдел производства&lt;br&gt;" style="swimlane;html=1;startSize=20;fontStyle=0;collapsible=0;horizontal=0;swimlaneLine=1;swimlaneFillColor=#ffffff;strokeWidth=2;whiteSpace=wrap;" parent="C3Bd5nNhJZMPWf8011Kq-1" vertex="1">
          <mxGeometry x="21" y="140" width="3159" height="220" as="geometry" />
        </mxCell>
        <mxCell id="C3Bd5nNhJZMPWf8011Kq-17" style="edgeStyle=orthogonalEdgeStyle;rounded=0;orthogonalLoop=1;jettySize=auto;html=1;exitX=1;exitY=0.5;exitDx=0;exitDy=0;exitPerimeter=0;" parent="C3Bd5nNhJZMPWf8011Kq-3" source="C3Bd5nNhJZMPWf8011Kq-12" target="C3Bd5nNhJZMPWf8011Kq-16" edge="1">
          <mxGeometry relative="1" as="geometry" />
        </mxCell>
        <mxCell id="C3Bd5nNhJZMPWf8011Kq-12" value="Получение&amp;nbsp;&lt;br&gt;заявки&amp;nbsp;&lt;br&gt;на производство" style="points=[[0.145,0.145,0],[0.5,0,0],[0.855,0.145,0],[1,0.5,0],[0.855,0.855,0],[0.5,1,0],[0.145,0.855,0],[0,0.5,0]];shape=mxgraph.bpmn.event;html=1;verticalLabelPosition=bottom;labelBackgroundColor=#ffffff;verticalAlign=top;align=center;perimeter=ellipsePerimeter;outlineConnect=0;aspect=fixed;outline=boundInt;symbol=message;" parent="C3Bd5nNhJZMPWf8011Kq-3" vertex="1">
          <mxGeometry x="365" y="27" width="50" height="50" as="geometry" />
        </mxCell>
        <mxCell id="C3Bd5nNhJZMPWf8011Kq-16" value="Зафиксировать&lt;br&gt;заявку" style="points=[[0.25,0,0],[0.5,0,0],[0.75,0,0],[1,0.25,0],[1,0.5,0],[1,0.75,0],[0.75,1,0],[0.5,1,0],[0.25,1,0],[0,0.75,0],[0,0.5,0],[0,0.25,0]];shape=mxgraph.bpmn.task;whiteSpace=wrap;rectStyle=rounded;size=10;html=1;container=1;expand=0;collapsible=0;taskMarker=manual;" parent="C3Bd5nNhJZMPWf8011Kq-3" vertex="1">
          <mxGeometry x="490" y="12" width="120" height="80" as="geometry" />
        </mxCell>
        <mxCell id="C3Bd5nNhJZMPWf8011Kq-18" value="Запросить данные о сырье" style="points=[[0.25,0,0],[0.5,0,0],[0.75,0,0],[1,0.25,0],[1,0.5,0],[1,0.75,0],[0.75,1,0],[0.5,1,0],[0.25,1,0],[0,0.75,0],[0,0.5,0],[0,0.25,0]];shape=mxgraph.bpmn.task;whiteSpace=wrap;rectStyle=rounded;size=10;html=1;container=1;expand=0;collapsible=0;taskMarker=manual;" parent="C3Bd5nNhJZMPWf8011Kq-3" vertex="1">
          <mxGeometry x="677" y="12" width="120" height="80" as="geometry" />
        </mxCell>
        <mxCell id="C3Bd5nNhJZMPWf8011Kq-19" style="edgeStyle=orthogonalEdgeStyle;rounded=0;orthogonalLoop=1;jettySize=auto;html=1;exitX=1;exitY=0.5;exitDx=0;exitDy=0;exitPerimeter=0;entryX=0;entryY=0.5;entryDx=0;entryDy=0;entryPerimeter=0;" parent="C3Bd5nNhJZMPWf8011Kq-3" source="C3Bd5nNhJZMPWf8011Kq-16" target="C3Bd5nNhJZMPWf8011Kq-18" edge="1">
          <mxGeometry relative="1" as="geometry" />
        </mxCell>
        <mxCell id="C3Bd5nNhJZMPWf8011Kq-34" value="Получение&amp;nbsp;&lt;br&gt;подтверждения&lt;br&gt;наличия сырья&amp;nbsp;" style="points=[[0.145,0.145,0],[0.5,0,0],[0.855,0.145,0],[1,0.5,0],[0.855,0.855,0],[0.5,1,0],[0.145,0.855,0],[0,0.5,0]];shape=mxgraph.bpmn.event;html=1;verticalLabelPosition=middle;labelBackgroundColor=#ffffff;verticalAlign=middle;align=right;perimeter=ellipsePerimeter;outlineConnect=0;aspect=fixed;outline=boundInt;symbol=message;labelPosition=left;" parent="C3Bd5nNhJZMPWf8011Kq-3" vertex="1">
          <mxGeometry x="1211" y="27" width="50" height="50" as="geometry" />
        </mxCell>
        <mxCell id="C3Bd5nNhJZMPWf8011Kq-37" value="Произвести&lt;br&gt;кондитерские&lt;br&gt;изделия" style="points=[[0.25,0,0],[0.5,0,0],[0.75,0,0],[1,0.25,0],[1,0.5,0],[1,0.75,0],[0.75,1,0],[0.5,1,0],[0.25,1,0],[0,0.75,0],[0,0.5,0],[0,0.25,0]];shape=mxgraph.bpmn.task;whiteSpace=wrap;rectStyle=rounded;size=10;html=1;container=1;expand=0;collapsible=0;taskMarker=service;" parent="C3Bd5nNhJZMPWf8011Kq-3" vertex="1">
          <mxGeometry x="2296" y="12" width="120" height="80" as="geometry" />
        </mxCell>
        <mxCell id="C3Bd5nNhJZMPWf8011Kq-38" style="edgeStyle=orthogonalEdgeStyle;rounded=0;orthogonalLoop=1;jettySize=auto;html=1;exitX=1;exitY=0.5;exitDx=0;exitDy=0;exitPerimeter=0;entryX=0;entryY=0.5;entryDx=0;entryDy=0;entryPerimeter=0;" parent="C3Bd5nNhJZMPWf8011Kq-3" source="C3Bd5nNhJZMPWf8011Kq-34" target="C3Bd5nNhJZMPWf8011Kq-37" edge="1">
          <mxGeometry relative="1" as="geometry" />
        </mxCell>
        <mxCell id="30ngk3Q0lwv7aPMlWF68-17" style="edgeStyle=orthogonalEdgeStyle;rounded=0;orthogonalLoop=1;jettySize=auto;html=1;exitX=1;exitY=0.5;exitDx=0;exitDy=0;exitPerimeter=0;" parent="C3Bd5nNhJZMPWf8011Kq-3" source="30ngk3Q0lwv7aPMlWF68-10" target="30ngk3Q0lwv7aPMlWF68-16" edge="1">
          <mxGeometry relative="1" as="geometry" />
        </mxCell>
        <mxCell id="30ngk3Q0lwv7aPMlWF68-10" value="Получение&amp;nbsp;&lt;br&gt;сырья &lt;br&gt;для проверки" style="points=[[0.145,0.145,0],[0.5,0,0],[0.855,0.145,0],[1,0.5,0],[0.855,0.855,0],[0.5,1,0],[0.145,0.855,0],[0,0.5,0]];shape=mxgraph.bpmn.event;html=1;verticalLabelPosition=middle;labelBackgroundColor=#ffffff;verticalAlign=middle;align=right;perimeter=ellipsePerimeter;outlineConnect=0;aspect=fixed;outline=boundInt;symbol=message;labelPosition=left;" parent="C3Bd5nNhJZMPWf8011Kq-3" vertex="1">
          <mxGeometry x="1675" y="139" width="50" height="50" as="geometry" />
        </mxCell>
        <mxCell id="30ngk3Q0lwv7aPMlWF68-16" value="Проверить сырье&lt;br&gt;(технолог)" style="points=[[0.25,0,0],[0.5,0,0],[0.75,0,0],[1,0.25,0],[1,0.5,0],[1,0.75,0],[0.75,1,0],[0.5,1,0],[0.25,1,0],[0,0.75,0],[0,0.5,0],[0,0.25,0]];shape=mxgraph.bpmn.task;whiteSpace=wrap;rectStyle=rounded;size=10;html=1;container=1;expand=0;collapsible=0;taskMarker=user;" parent="C3Bd5nNhJZMPWf8011Kq-3" vertex="1">
          <mxGeometry x="1770" y="124" width="120" height="80" as="geometry" />
        </mxCell>
        <mxCell id="30ngk3Q0lwv7aPMlWF68-18" value="Отправить&amp;nbsp;&lt;br&gt;отчет о качестве сырья" style="points=[[0.25,0,0],[0.5,0,0],[0.75,0,0],[1,0.25,0],[1,0.5,0],[1,0.75,0],[0.75,1,0],[0.5,1,0],[0.25,1,0],[0,0.75,0],[0,0.5,0],[0,0.25,0]];shape=mxgraph.bpmn.task;whiteSpace=wrap;rectStyle=rounded;size=10;html=1;container=1;expand=0;collapsible=0;taskMarker=user;" parent="C3Bd5nNhJZMPWf8011Kq-3" vertex="1">
          <mxGeometry x="1935" y="124" width="120" height="80" as="geometry" />
        </mxCell>
        <mxCell id="30ngk3Q0lwv7aPMlWF68-19" style="edgeStyle=orthogonalEdgeStyle;rounded=0;orthogonalLoop=1;jettySize=auto;html=1;exitX=1;exitY=0.5;exitDx=0;exitDy=0;exitPerimeter=0;entryX=0;entryY=0.5;entryDx=0;entryDy=0;entryPerimeter=0;" parent="C3Bd5nNhJZMPWf8011Kq-3" source="30ngk3Q0lwv7aPMlWF68-16" target="30ngk3Q0lwv7aPMlWF68-18" edge="1">
          <mxGeometry relative="1" as="geometry" />
        </mxCell>
        <mxCell id="30ngk3Q0lwv7aPMlWF68-45" value="Получение&amp;nbsp;&lt;br&gt;подтверждения&lt;br&gt;наличия сырья&amp;nbsp;" style="points=[[0.145,0.145,0],[0.5,0,0],[0.855,0.145,0],[1,0.5,0],[0.855,0.855,0],[0.5,1,0],[0.145,0.855,0],[0,0.5,0]];shape=mxgraph.bpmn.event;html=1;verticalLabelPosition=middle;labelBackgroundColor=#ffffff;verticalAlign=middle;align=right;perimeter=ellipsePerimeter;outlineConnect=0;aspect=fixed;outline=boundInt;symbol=message;labelPosition=left;" parent="C3Bd5nNhJZMPWf8011Kq-3" vertex="1">
          <mxGeometry x="2325" y="124" width="50" height="50" as="geometry" />
        </mxCell>
        <mxCell id="30ngk3Q0lwv7aPMlWF68-47" style="edgeStyle=orthogonalEdgeStyle;rounded=0;orthogonalLoop=1;jettySize=auto;html=1;exitX=0.5;exitY=0;exitDx=0;exitDy=0;exitPerimeter=0;entryX=0.447;entryY=0.975;entryDx=0;entryDy=0;entryPerimeter=0;" parent="C3Bd5nNhJZMPWf8011Kq-3" source="30ngk3Q0lwv7aPMlWF68-45" target="C3Bd5nNhJZMPWf8011Kq-37" edge="1">
          <mxGeometry relative="1" as="geometry" />
        </mxCell>
        <mxCell id="6L4qWWEej8NQcM-y__Ho-2" style="edgeStyle=orthogonalEdgeStyle;rounded=0;orthogonalLoop=1;jettySize=auto;html=1;exitX=1;exitY=0.5;exitDx=0;exitDy=0;exitPerimeter=0;" edge="1" parent="C3Bd5nNhJZMPWf8011Kq-3" source="30ngk3Q0lwv7aPMlWF68-49" target="6L4qWWEej8NQcM-y__Ho-1">
          <mxGeometry relative="1" as="geometry" />
        </mxCell>
        <mxCell id="30ngk3Q0lwv7aPMlWF68-49" value="Передать произведенные изделия на склад" style="points=[[0.25,0,0],[0.5,0,0],[0.75,0,0],[1,0.25,0],[1,0.5,0],[1,0.75,0],[0.75,1,0],[0.5,1,0],[0.25,1,0],[0,0.75,0],[0,0.5,0],[0,0.25,0]];shape=mxgraph.bpmn.task;whiteSpace=wrap;rectStyle=rounded;size=10;html=1;container=1;expand=0;collapsible=0;taskMarker=manual;" parent="C3Bd5nNhJZMPWf8011Kq-3" vertex="1">
          <mxGeometry x="2455" y="12" width="120" height="80" as="geometry" />
        </mxCell>
        <mxCell id="30ngk3Q0lwv7aPMlWF68-50" style="edgeStyle=orthogonalEdgeStyle;rounded=0;orthogonalLoop=1;jettySize=auto;html=1;exitX=1;exitY=0.5;exitDx=0;exitDy=0;exitPerimeter=0;entryX=0;entryY=0.5;entryDx=0;entryDy=0;entryPerimeter=0;" parent="C3Bd5nNhJZMPWf8011Kq-3" source="C3Bd5nNhJZMPWf8011Kq-37" target="30ngk3Q0lwv7aPMlWF68-49" edge="1">
          <mxGeometry relative="1" as="geometry" />
        </mxCell>
        <mxCell id="30ngk3Q0lwv7aPMlWF68-80" value="Сформировать отчет о производстве" style="points=[[0.25,0,0],[0.5,0,0],[0.75,0,0],[1,0.25,0],[1,0.5,0],[1,0.75,0],[0.75,1,0],[0.5,1,0],[0.25,1,0],[0,0.75,0],[0,0.5,0],[0,0.25,0]];shape=mxgraph.bpmn.task;whiteSpace=wrap;rectStyle=rounded;size=10;html=1;container=1;expand=0;collapsible=0;taskMarker=manual;" parent="C3Bd5nNhJZMPWf8011Kq-3" vertex="1">
          <mxGeometry x="2797" y="12" width="120" height="80" as="geometry" />
        </mxCell>
        <mxCell id="6L4qWWEej8NQcM-y__Ho-1" value="" style="points=[[0.25,0.25,0],[0.5,0,0],[0.75,0.25,0],[1,0.5,0],[0.75,0.75,0],[0.5,1,0],[0.25,0.75,0],[0,0.5,0]];shape=mxgraph.bpmn.gateway2;html=1;verticalLabelPosition=bottom;labelBackgroundColor=#ffffff;verticalAlign=top;align=center;perimeter=rhombusPerimeter;outlineConnect=0;outline=standard;symbol=parallelMultiple;" vertex="1" parent="C3Bd5nNhJZMPWf8011Kq-3">
          <mxGeometry x="2607" y="27" width="50" height="50" as="geometry" />
        </mxCell>
        <mxCell id="6L4qWWEej8NQcM-y__Ho-3" style="edgeStyle=orthogonalEdgeStyle;rounded=0;orthogonalLoop=1;jettySize=auto;html=1;exitX=1;exitY=0.5;exitDx=0;exitDy=0;exitPerimeter=0;entryX=0;entryY=0.5;entryDx=0;entryDy=0;entryPerimeter=0;" edge="1" parent="C3Bd5nNhJZMPWf8011Kq-3" source="6L4qWWEej8NQcM-y__Ho-1" target="30ngk3Q0lwv7aPMlWF68-80">
          <mxGeometry relative="1" as="geometry" />
        </mxCell>
        <mxCell id="C3Bd5nNhJZMPWf8011Kq-4" value="" style="swimlane;html=1;startSize=20;fontStyle=0;collapsible=0;horizontal=0;swimlaneLine=1;swimlaneFillColor=#ffffff;strokeWidth=2;whiteSpace=wrap;labelPosition=left;verticalLabelPosition=middle;align=right;verticalAlign=middle;" parent="C3Bd5nNhJZMPWf8011Kq-1" vertex="1">
          <mxGeometry x="21" y="360" width="3159" height="350" as="geometry" />
        </mxCell>
        <mxCell id="C3Bd5nNhJZMPWf8011Kq-28" style="edgeStyle=orthogonalEdgeStyle;rounded=0;orthogonalLoop=1;jettySize=auto;html=1;exitX=1;exitY=0.5;exitDx=0;exitDy=0;exitPerimeter=0;" parent="C3Bd5nNhJZMPWf8011Kq-4" source="C3Bd5nNhJZMPWf8011Kq-20" target="C3Bd5nNhJZMPWf8011Kq-27" edge="1">
          <mxGeometry relative="1" as="geometry" />
        </mxCell>
        <mxCell id="C3Bd5nNhJZMPWf8011Kq-20" value="Получение&amp;nbsp;&lt;br&gt;запроса данных&amp;nbsp;&lt;br&gt;о сырье" style="points=[[0.145,0.145,0],[0.5,0,0],[0.855,0.145,0],[1,0.5,0],[0.855,0.855,0],[0.5,1,0],[0.145,0.855,0],[0,0.5,0]];shape=mxgraph.bpmn.event;html=1;verticalLabelPosition=bottom;labelBackgroundColor=#ffffff;verticalAlign=top;align=center;perimeter=ellipsePerimeter;outlineConnect=0;aspect=fixed;outline=boundInt;symbol=message;" parent="C3Bd5nNhJZMPWf8011Kq-4" vertex="1">
          <mxGeometry x="712" y="41" width="50" height="50" as="geometry" />
        </mxCell>
        <mxCell id="C3Bd5nNhJZMPWf8011Kq-30" style="edgeStyle=orthogonalEdgeStyle;rounded=0;orthogonalLoop=1;jettySize=auto;html=1;exitX=1;exitY=0.5;exitDx=0;exitDy=0;exitPerimeter=0;entryX=0;entryY=0.5;entryDx=0;entryDy=0;entryPerimeter=0;" parent="C3Bd5nNhJZMPWf8011Kq-4" source="C3Bd5nNhJZMPWf8011Kq-27" target="C3Bd5nNhJZMPWf8011Kq-29" edge="1">
          <mxGeometry relative="1" as="geometry">
            <mxPoint x="1030" y="55" as="targetPoint" />
          </mxGeometry>
        </mxCell>
        <mxCell id="C3Bd5nNhJZMPWf8011Kq-27" value="Проверить наличие&lt;br&gt;сырья" style="points=[[0.25,0,0],[0.5,0,0],[0.75,0,0],[1,0.25,0],[1,0.5,0],[1,0.75,0],[0.75,1,0],[0.5,1,0],[0.25,1,0],[0,0.75,0],[0,0.5,0],[0,0.25,0]];shape=mxgraph.bpmn.task;whiteSpace=wrap;rectStyle=rounded;size=10;html=1;container=1;expand=0;collapsible=0;taskMarker=manual;" parent="C3Bd5nNhJZMPWf8011Kq-4" vertex="1">
          <mxGeometry x="840" y="26" width="120" height="80" as="geometry" />
        </mxCell>
        <mxCell id="C3Bd5nNhJZMPWf8011Kq-29" value="Сырье есть&lt;br&gt;в налчии?" style="points=[[0.25,0.25,0],[0.5,0,0],[0.75,0.25,0],[1,0.5,0],[0.75,0.75,0],[0.5,1,0],[0.25,0.75,0],[0,0.5,0]];shape=mxgraph.bpmn.gateway2;html=1;verticalLabelPosition=top;labelBackgroundColor=#ffffff;verticalAlign=bottom;align=center;perimeter=rhombusPerimeter;outlineConnect=0;outline=none;symbol=none;gwType=exclusive;labelPosition=center;" parent="C3Bd5nNhJZMPWf8011Kq-4" vertex="1">
          <mxGeometry x="1030" y="41" width="50" height="50" as="geometry" />
        </mxCell>
        <mxCell id="C3Bd5nNhJZMPWf8011Kq-31" value="Подтвердить&lt;br&gt;наличие сырья" style="points=[[0.25,0,0],[0.5,0,0],[0.75,0,0],[1,0.25,0],[1,0.5,0],[1,0.75,0],[0.75,1,0],[0.5,1,0],[0.25,1,0],[0,0.75,0],[0,0.5,0],[0,0.25,0]];shape=mxgraph.bpmn.task;whiteSpace=wrap;rectStyle=rounded;size=10;html=1;container=1;expand=0;collapsible=0;taskMarker=manual;" parent="C3Bd5nNhJZMPWf8011Kq-4" vertex="1">
          <mxGeometry x="1175" y="26" width="120" height="80" as="geometry" />
        </mxCell>
        <mxCell id="C3Bd5nNhJZMPWf8011Kq-32" style="edgeStyle=orthogonalEdgeStyle;rounded=0;orthogonalLoop=1;jettySize=auto;html=1;exitX=1;exitY=0.5;exitDx=0;exitDy=0;exitPerimeter=0;entryX=0;entryY=0.5;entryDx=0;entryDy=0;entryPerimeter=0;" parent="C3Bd5nNhJZMPWf8011Kq-4" source="C3Bd5nNhJZMPWf8011Kq-29" target="C3Bd5nNhJZMPWf8011Kq-31" edge="1">
          <mxGeometry relative="1" as="geometry" />
        </mxCell>
        <mxCell id="C3Bd5nNhJZMPWf8011Kq-33" value="Да" style="edgeLabel;html=1;align=center;verticalAlign=middle;resizable=0;points=[];" parent="C3Bd5nNhJZMPWf8011Kq-32" vertex="1" connectable="0">
          <mxGeometry x="-0.2343" relative="1" as="geometry">
            <mxPoint as="offset" />
          </mxGeometry>
        </mxCell>
        <mxCell id="C3Bd5nNhJZMPWf8011Kq-36" value="Склад" style="text;html=1;align=center;verticalAlign=middle;resizable=0;points=[];autosize=1;strokeColor=none;fillColor=none;rotation=-90;" parent="C3Bd5nNhJZMPWf8011Kq-4" vertex="1">
          <mxGeometry x="-20" y="88" width="60" height="30" as="geometry" />
        </mxCell>
        <mxCell id="C3Bd5nNhJZMPWf8011Kq-39" value="Оформить&lt;br&gt;заявку на закупку сырья" style="points=[[0.25,0,0],[0.5,0,0],[0.75,0,0],[1,0.25,0],[1,0.5,0],[1,0.75,0],[0.75,1,0],[0.5,1,0],[0.25,1,0],[0,0.75,0],[0,0.5,0],[0,0.25,0]];shape=mxgraph.bpmn.task;whiteSpace=wrap;rectStyle=rounded;size=10;html=1;container=1;expand=0;collapsible=0;taskMarker=manual;" parent="C3Bd5nNhJZMPWf8011Kq-4" vertex="1">
          <mxGeometry x="995" y="170" width="120" height="80" as="geometry" />
        </mxCell>
        <mxCell id="C3Bd5nNhJZMPWf8011Kq-40" style="edgeStyle=orthogonalEdgeStyle;rounded=0;orthogonalLoop=1;jettySize=auto;html=1;exitX=0.5;exitY=1;exitDx=0;exitDy=0;exitPerimeter=0;entryX=0.5;entryY=0;entryDx=0;entryDy=0;entryPerimeter=0;" parent="C3Bd5nNhJZMPWf8011Kq-4" source="C3Bd5nNhJZMPWf8011Kq-29" target="C3Bd5nNhJZMPWf8011Kq-39" edge="1">
          <mxGeometry relative="1" as="geometry" />
        </mxCell>
        <mxCell id="C3Bd5nNhJZMPWf8011Kq-49" value="Нет" style="edgeLabel;html=1;align=center;verticalAlign=middle;resizable=0;points=[];" parent="C3Bd5nNhJZMPWf8011Kq-40" vertex="1" connectable="0">
          <mxGeometry x="-0.2842" relative="1" as="geometry">
            <mxPoint as="offset" />
          </mxGeometry>
        </mxCell>
        <mxCell id="30ngk3Q0lwv7aPMlWF68-3" value="Получение&amp;nbsp;&lt;br&gt;уведомления&lt;br&gt;&amp;nbsp;о закупке" style="points=[[0.145,0.145,0],[0.5,0,0],[0.855,0.145,0],[1,0.5,0],[0.855,0.855,0],[0.5,1,0],[0.145,0.855,0],[0,0.5,0]];shape=mxgraph.bpmn.event;html=1;verticalLabelPosition=middle;labelBackgroundColor=#ffffff;verticalAlign=middle;align=right;perimeter=ellipsePerimeter;outlineConnect=0;aspect=fixed;outline=boundInt;symbol=message;labelPosition=left;" parent="C3Bd5nNhJZMPWf8011Kq-4" vertex="1">
          <mxGeometry x="1345" y="170" width="50" height="50" as="geometry" />
        </mxCell>
        <mxCell id="30ngk3Q0lwv7aPMlWF68-5" value="Принять сырье&lt;br&gt;от поставщика&lt;br&gt;" style="points=[[0.25,0,0],[0.5,0,0],[0.75,0,0],[1,0.25,0],[1,0.5,0],[1,0.75,0],[0.75,1,0],[0.5,1,0],[0.25,1,0],[0,0.75,0],[0,0.5,0],[0,0.25,0]];shape=mxgraph.bpmn.task;whiteSpace=wrap;rectStyle=rounded;size=10;html=1;container=1;expand=0;collapsible=0;taskMarker=manual;" parent="C3Bd5nNhJZMPWf8011Kq-4" vertex="1">
          <mxGeometry x="1461" y="155" width="120" height="80" as="geometry" />
        </mxCell>
        <mxCell id="30ngk3Q0lwv7aPMlWF68-6" style="edgeStyle=orthogonalEdgeStyle;rounded=0;orthogonalLoop=1;jettySize=auto;html=1;exitX=1;exitY=0.5;exitDx=0;exitDy=0;exitPerimeter=0;entryX=0;entryY=0.5;entryDx=0;entryDy=0;entryPerimeter=0;" parent="C3Bd5nNhJZMPWf8011Kq-4" source="30ngk3Q0lwv7aPMlWF68-3" target="30ngk3Q0lwv7aPMlWF68-5" edge="1">
          <mxGeometry relative="1" as="geometry" />
        </mxCell>
        <mxCell id="30ngk3Q0lwv7aPMlWF68-8" value="Передать сырье&lt;br&gt;на проверку" style="points=[[0.25,0,0],[0.5,0,0],[0.75,0,0],[1,0.25,0],[1,0.5,0],[1,0.75,0],[0.75,1,0],[0.5,1,0],[0.25,1,0],[0,0.75,0],[0,0.5,0],[0,0.25,0]];shape=mxgraph.bpmn.task;whiteSpace=wrap;rectStyle=rounded;size=10;html=1;container=1;expand=0;collapsible=0;taskMarker=manual;" parent="C3Bd5nNhJZMPWf8011Kq-4" vertex="1">
          <mxGeometry x="1640" y="155" width="120" height="80" as="geometry" />
        </mxCell>
        <mxCell id="30ngk3Q0lwv7aPMlWF68-9" style="edgeStyle=orthogonalEdgeStyle;rounded=0;orthogonalLoop=1;jettySize=auto;html=1;exitX=1;exitY=0.5;exitDx=0;exitDy=0;exitPerimeter=0;entryX=0;entryY=0.5;entryDx=0;entryDy=0;entryPerimeter=0;" parent="C3Bd5nNhJZMPWf8011Kq-4" source="30ngk3Q0lwv7aPMlWF68-5" target="30ngk3Q0lwv7aPMlWF68-8" edge="1">
          <mxGeometry relative="1" as="geometry" />
        </mxCell>
        <mxCell id="30ngk3Q0lwv7aPMlWF68-34" value="Получение&amp;nbsp;&lt;br&gt;отчета&amp;nbsp;&lt;br&gt;о проверке сырья" style="points=[[0.145,0.145,0],[0.5,0,0],[0.855,0.145,0],[1,0.5,0],[0.855,0.855,0],[0.5,1,0],[0.145,0.855,0],[0,0.5,0]];shape=mxgraph.bpmn.event;html=1;verticalLabelPosition=middle;labelBackgroundColor=#ffffff;verticalAlign=middle;align=right;perimeter=ellipsePerimeter;outlineConnect=0;aspect=fixed;outline=boundInt;symbol=message;labelPosition=left;" parent="C3Bd5nNhJZMPWf8011Kq-4" vertex="1">
          <mxGeometry x="1970" y="26" width="50" height="50" as="geometry" />
        </mxCell>
        <mxCell id="30ngk3Q0lwv7aPMlWF68-41" style="edgeStyle=orthogonalEdgeStyle;rounded=0;orthogonalLoop=1;jettySize=auto;html=1;exitX=1;exitY=0.5;exitDx=0;exitDy=0;exitPerimeter=0;" parent="C3Bd5nNhJZMPWf8011Kq-4" source="30ngk3Q0lwv7aPMlWF68-36" edge="1">
          <mxGeometry relative="1" as="geometry">
            <mxPoint x="2130" y="159" as="targetPoint" />
          </mxGeometry>
        </mxCell>
        <mxCell id="30ngk3Q0lwv7aPMlWF68-36" value="Проанализировать отчет" style="points=[[0.25,0,0],[0.5,0,0],[0.75,0,0],[1,0.25,0],[1,0.5,0],[1,0.75,0],[0.75,1,0],[0.5,1,0],[0.25,1,0],[0,0.75,0],[0,0.5,0],[0,0.25,0]];shape=mxgraph.bpmn.task;whiteSpace=wrap;rectStyle=rounded;size=10;html=1;container=1;expand=0;collapsible=0;taskMarker=manual;" parent="C3Bd5nNhJZMPWf8011Kq-4" vertex="1">
          <mxGeometry x="1935" y="119" width="120" height="80" as="geometry" />
        </mxCell>
        <mxCell id="30ngk3Q0lwv7aPMlWF68-37" style="edgeStyle=orthogonalEdgeStyle;rounded=0;orthogonalLoop=1;jettySize=auto;html=1;exitX=0.5;exitY=1;exitDx=0;exitDy=0;exitPerimeter=0;entryX=0.5;entryY=0;entryDx=0;entryDy=0;entryPerimeter=0;" parent="C3Bd5nNhJZMPWf8011Kq-4" source="30ngk3Q0lwv7aPMlWF68-34" target="30ngk3Q0lwv7aPMlWF68-36" edge="1">
          <mxGeometry relative="1" as="geometry" />
        </mxCell>
        <mxCell id="30ngk3Q0lwv7aPMlWF68-44" style="edgeStyle=orthogonalEdgeStyle;rounded=0;orthogonalLoop=1;jettySize=auto;html=1;exitX=1;exitY=0.5;exitDx=0;exitDy=0;exitPerimeter=0;" parent="C3Bd5nNhJZMPWf8011Kq-4" source="30ngk3Q0lwv7aPMlWF68-38" target="30ngk3Q0lwv7aPMlWF68-42" edge="1">
          <mxGeometry relative="1" as="geometry" />
        </mxCell>
        <mxCell id="30ngk3Q0lwv7aPMlWF68-67" value="Да" style="edgeLabel;html=1;align=center;verticalAlign=middle;resizable=0;points=[];" parent="30ngk3Q0lwv7aPMlWF68-44" vertex="1" connectable="0">
          <mxGeometry x="-0.2098" y="4" relative="1" as="geometry">
            <mxPoint as="offset" />
          </mxGeometry>
        </mxCell>
        <mxCell id="30ngk3Q0lwv7aPMlWF68-38" value="Сырье&lt;br&gt;качественное?" style="points=[[0.25,0.25,0],[0.5,0,0],[0.75,0.25,0],[1,0.5,0],[0.75,0.75,0],[0.5,1,0],[0.25,0.75,0],[0,0.5,0]];shape=mxgraph.bpmn.gateway2;html=1;verticalLabelPosition=top;labelBackgroundColor=#ffffff;verticalAlign=bottom;align=center;perimeter=rhombusPerimeter;outlineConnect=0;outline=none;symbol=none;gwType=exclusive;labelPosition=center;" parent="C3Bd5nNhJZMPWf8011Kq-4" vertex="1">
          <mxGeometry x="2130" y="134" width="50" height="50" as="geometry" />
        </mxCell>
        <mxCell id="30ngk3Q0lwv7aPMlWF68-42" value="Подтвердить&lt;br&gt;наличия сырья" style="points=[[0.25,0,0],[0.5,0,0],[0.75,0,0],[1,0.25,0],[1,0.5,0],[1,0.75,0],[0.75,1,0],[0.5,1,0],[0.25,1,0],[0,0.75,0],[0,0.5,0],[0,0.25,0]];shape=mxgraph.bpmn.task;whiteSpace=wrap;rectStyle=rounded;size=10;html=1;container=1;expand=0;collapsible=0;taskMarker=manual;" parent="C3Bd5nNhJZMPWf8011Kq-4" vertex="1">
          <mxGeometry x="2290" y="119" width="120" height="80" as="geometry" />
        </mxCell>
        <mxCell id="30ngk3Q0lwv7aPMlWF68-52" value="Получить произведенные&lt;br&gt;изделия" style="points=[[0.25,0,0],[0.5,0,0],[0.75,0,0],[1,0.25,0],[1,0.5,0],[1,0.75,0],[0.75,1,0],[0.5,1,0],[0.25,1,0],[0,0.75,0],[0,0.5,0],[0,0.25,0]];shape=mxgraph.bpmn.task;whiteSpace=wrap;rectStyle=rounded;size=10;html=1;container=1;expand=0;collapsible=0;taskMarker=manual;" parent="C3Bd5nNhJZMPWf8011Kq-4" vertex="1">
          <mxGeometry x="2490" y="118" width="120" height="80" as="geometry" />
        </mxCell>
        <mxCell id="30ngk3Q0lwv7aPMlWF68-55" value="Хранинть произведенные&lt;br&gt;изделия" style="points=[[0.25,0,0],[0.5,0,0],[0.75,0,0],[1,0.25,0],[1,0.5,0],[1,0.75,0],[0.75,1,0],[0.5,1,0],[0.25,1,0],[0,0.75,0],[0,0.5,0],[0,0.25,0]];shape=mxgraph.bpmn.task;whiteSpace=wrap;rectStyle=rounded;size=10;html=1;container=1;expand=0;collapsible=0;taskMarker=manual;" parent="C3Bd5nNhJZMPWf8011Kq-4" vertex="1">
          <mxGeometry x="2650" y="235" width="120" height="80" as="geometry" />
        </mxCell>
        <mxCell id="30ngk3Q0lwv7aPMlWF68-56" value="Получена&lt;br&gt;команда &lt;br&gt;на отгрузку" style="points=[[0.145,0.145,0],[0.5,0,0],[0.855,0.145,0],[1,0.5,0],[0.855,0.855,0],[0.5,1,0],[0.145,0.855,0],[0,0.5,0]];shape=mxgraph.bpmn.event;html=1;verticalLabelPosition=middle;labelBackgroundColor=#ffffff;verticalAlign=middle;align=left;perimeter=ellipsePerimeter;outlineConnect=0;aspect=fixed;outline=standard;symbol=message;labelPosition=right;spacingLeft=10;" parent="30ngk3Q0lwv7aPMlWF68-55" vertex="1">
          <mxGeometry x="85" y="62" width="30" height="30" as="geometry" />
        </mxCell>
        <mxCell id="30ngk3Q0lwv7aPMlWF68-68" value="Запустить процесс&amp;nbsp;&lt;br&gt;возврата" style="points=[[0.25,0,0],[0.5,0,0],[0.75,0,0],[1,0.25,0],[1,0.5,0],[1,0.75,0],[0.75,1,0],[0.5,1,0],[0.25,1,0],[0,0.75,0],[0,0.5,0],[0,0.25,0]];shape=mxgraph.bpmn.task;whiteSpace=wrap;rectStyle=rounded;size=10;html=1;container=1;expand=0;collapsible=0;taskMarker=manual;" parent="C3Bd5nNhJZMPWf8011Kq-4" vertex="1">
          <mxGeometry x="2095" y="239" width="120" height="80" as="geometry" />
        </mxCell>
        <mxCell id="30ngk3Q0lwv7aPMlWF68-69" value="Нет" style="edgeStyle=orthogonalEdgeStyle;rounded=0;orthogonalLoop=1;jettySize=auto;html=1;exitX=0.5;exitY=1;exitDx=0;exitDy=0;exitPerimeter=0;entryX=0.5;entryY=0;entryDx=0;entryDy=0;entryPerimeter=0;" parent="C3Bd5nNhJZMPWf8011Kq-4" source="30ngk3Q0lwv7aPMlWF68-38" target="30ngk3Q0lwv7aPMlWF68-68" edge="1">
          <mxGeometry relative="1" as="geometry" />
        </mxCell>
        <mxCell id="6L4qWWEej8NQcM-y__Ho-5" value="" style="points=[[0.25,0.25,0],[0.5,0,0],[0.75,0.25,0],[1,0.5,0],[0.75,0.75,0],[0.5,1,0],[0.25,0.75,0],[0,0.5,0]];shape=mxgraph.bpmn.gateway2;html=1;verticalLabelPosition=bottom;labelBackgroundColor=#ffffff;verticalAlign=top;align=center;perimeter=rhombusPerimeter;outlineConnect=0;outline=standard;symbol=general;" vertex="1" parent="C3Bd5nNhJZMPWf8011Kq-4">
          <mxGeometry x="2685" y="133" width="50" height="50" as="geometry" />
        </mxCell>
        <mxCell id="6L4qWWEej8NQcM-y__Ho-6" style="edgeStyle=orthogonalEdgeStyle;rounded=0;orthogonalLoop=1;jettySize=auto;html=1;exitX=1;exitY=0.5;exitDx=0;exitDy=0;exitPerimeter=0;entryX=0;entryY=0.5;entryDx=0;entryDy=0;entryPerimeter=0;" edge="1" parent="C3Bd5nNhJZMPWf8011Kq-4" source="30ngk3Q0lwv7aPMlWF68-52" target="6L4qWWEej8NQcM-y__Ho-5">
          <mxGeometry relative="1" as="geometry" />
        </mxCell>
        <mxCell id="6L4qWWEej8NQcM-y__Ho-7" style="edgeStyle=orthogonalEdgeStyle;rounded=0;orthogonalLoop=1;jettySize=auto;html=1;exitX=0.5;exitY=1;exitDx=0;exitDy=0;exitPerimeter=0;entryX=0.5;entryY=0;entryDx=0;entryDy=0;entryPerimeter=0;" edge="1" parent="C3Bd5nNhJZMPWf8011Kq-4" source="6L4qWWEej8NQcM-y__Ho-5" target="30ngk3Q0lwv7aPMlWF68-55">
          <mxGeometry relative="1" as="geometry" />
        </mxCell>
        <mxCell id="C3Bd5nNhJZMPWf8011Kq-15" style="edgeStyle=orthogonalEdgeStyle;rounded=0;orthogonalLoop=1;jettySize=auto;html=1;exitX=0.5;exitY=1;exitDx=0;exitDy=0;exitPerimeter=0;entryX=0.5;entryY=0;entryDx=0;entryDy=0;entryPerimeter=0;" parent="C3Bd5nNhJZMPWf8011Kq-1" source="C3Bd5nNhJZMPWf8011Kq-10" target="C3Bd5nNhJZMPWf8011Kq-12" edge="1">
          <mxGeometry relative="1" as="geometry" />
        </mxCell>
        <mxCell id="C3Bd5nNhJZMPWf8011Kq-26" style="edgeStyle=orthogonalEdgeStyle;rounded=0;orthogonalLoop=1;jettySize=auto;html=1;exitX=0.5;exitY=1;exitDx=0;exitDy=0;exitPerimeter=0;" parent="C3Bd5nNhJZMPWf8011Kq-1" source="C3Bd5nNhJZMPWf8011Kq-18" target="C3Bd5nNhJZMPWf8011Kq-20" edge="1">
          <mxGeometry relative="1" as="geometry" />
        </mxCell>
        <mxCell id="C3Bd5nNhJZMPWf8011Kq-35" style="edgeStyle=orthogonalEdgeStyle;rounded=0;orthogonalLoop=1;jettySize=auto;html=1;exitX=0.5;exitY=0;exitDx=0;exitDy=0;exitPerimeter=0;" parent="C3Bd5nNhJZMPWf8011Kq-1" source="C3Bd5nNhJZMPWf8011Kq-31" target="C3Bd5nNhJZMPWf8011Kq-34" edge="1">
          <mxGeometry relative="1" as="geometry" />
        </mxCell>
        <mxCell id="C3Bd5nNhJZMPWf8011Kq-5" value="Отдел закупок&lt;br&gt;" style="swimlane;html=1;startSize=20;fontStyle=0;collapsible=0;horizontal=0;swimlaneLine=1;swimlaneFillColor=#ffffff;strokeWidth=2;whiteSpace=wrap;" parent="C3Bd5nNhJZMPWf8011Kq-1" vertex="1">
          <mxGeometry x="21" y="710" width="3159" height="170" as="geometry" />
        </mxCell>
        <mxCell id="C3Bd5nNhJZMPWf8011Kq-41" value="Получение&amp;nbsp;&lt;br&gt;заявки на закупку" style="points=[[0.145,0.145,0],[0.5,0,0],[0.855,0.145,0],[1,0.5,0],[0.855,0.855,0],[0.5,1,0],[0.145,0.855,0],[0,0.5,0]];shape=mxgraph.bpmn.event;html=1;verticalLabelPosition=bottom;labelBackgroundColor=#ffffff;verticalAlign=top;align=center;perimeter=ellipsePerimeter;outlineConnect=0;aspect=fixed;outline=boundInt;symbol=message;" parent="C3Bd5nNhJZMPWf8011Kq-5" vertex="1">
          <mxGeometry x="1030" y="31" width="50" height="50" as="geometry" />
        </mxCell>
        <mxCell id="C3Bd5nNhJZMPWf8011Kq-43" value="Произвести&lt;br&gt;закупку" style="points=[[0.25,0,0],[0.5,0,0],[0.75,0,0],[1,0.25,0],[1,0.5,0],[1,0.75,0],[0.75,1,0],[0.5,1,0],[0.25,1,0],[0,0.75,0],[0,0.5,0],[0,0.25,0]];shape=mxgraph.bpmn.task;whiteSpace=wrap;rectStyle=rounded;size=10;html=1;container=1;expand=0;collapsible=0;taskMarker=manual;" parent="C3Bd5nNhJZMPWf8011Kq-5" vertex="1">
          <mxGeometry x="1147" y="16" width="120" height="80" as="geometry" />
        </mxCell>
        <mxCell id="C3Bd5nNhJZMPWf8011Kq-44" style="edgeStyle=orthogonalEdgeStyle;rounded=0;orthogonalLoop=1;jettySize=auto;html=1;exitX=1;exitY=0.5;exitDx=0;exitDy=0;exitPerimeter=0;entryX=0;entryY=0.5;entryDx=0;entryDy=0;entryPerimeter=0;" parent="C3Bd5nNhJZMPWf8011Kq-5" source="C3Bd5nNhJZMPWf8011Kq-41" target="C3Bd5nNhJZMPWf8011Kq-43" edge="1">
          <mxGeometry relative="1" as="geometry" />
        </mxCell>
        <mxCell id="30ngk3Q0lwv7aPMlWF68-1" value="Уведомить склад о закупке" style="points=[[0.25,0,0],[0.5,0,0],[0.75,0,0],[1,0.25,0],[1,0.5,0],[1,0.75,0],[0.75,1,0],[0.5,1,0],[0.25,1,0],[0,0.75,0],[0,0.5,0],[0,0.25,0]];shape=mxgraph.bpmn.task;whiteSpace=wrap;rectStyle=rounded;size=10;html=1;container=1;expand=0;collapsible=0;taskMarker=manual;" parent="C3Bd5nNhJZMPWf8011Kq-5" vertex="1">
          <mxGeometry x="1310" y="16" width="120" height="80" as="geometry" />
        </mxCell>
        <mxCell id="30ngk3Q0lwv7aPMlWF68-2" style="edgeStyle=orthogonalEdgeStyle;rounded=0;orthogonalLoop=1;jettySize=auto;html=1;exitX=1;exitY=0.5;exitDx=0;exitDy=0;exitPerimeter=0;entryX=0;entryY=0.5;entryDx=0;entryDy=0;entryPerimeter=0;" parent="C3Bd5nNhJZMPWf8011Kq-5" source="C3Bd5nNhJZMPWf8011Kq-43" target="30ngk3Q0lwv7aPMlWF68-1" edge="1">
          <mxGeometry relative="1" as="geometry" />
        </mxCell>
        <mxCell id="30ngk3Q0lwv7aPMlWF68-70" value="Получение&amp;nbsp;&lt;br&gt;заявки на возврат" style="points=[[0.145,0.145,0],[0.5,0,0],[0.855,0.145,0],[1,0.5,0],[0.855,0.855,0],[0.5,1,0],[0.145,0.855,0],[0,0.5,0]];shape=mxgraph.bpmn.event;html=1;verticalLabelPosition=bottom;labelBackgroundColor=#ffffff;verticalAlign=top;align=center;perimeter=ellipsePerimeter;outlineConnect=0;aspect=fixed;outline=boundInt;symbol=message;" parent="C3Bd5nNhJZMPWf8011Kq-5" vertex="1">
          <mxGeometry x="2130" y="28" width="50" height="50" as="geometry" />
        </mxCell>
        <mxCell id="30ngk3Q0lwv7aPMlWF68-72" value="Вернуть сырье поставщику" style="points=[[0.25,0,0],[0.5,0,0],[0.75,0,0],[1,0.25,0],[1,0.5,0],[1,0.75,0],[0.75,1,0],[0.5,1,0],[0.25,1,0],[0,0.75,0],[0,0.5,0],[0,0.25,0]];shape=mxgraph.bpmn.task;whiteSpace=wrap;rectStyle=rounded;size=10;html=1;container=1;expand=0;collapsible=0;taskMarker=manual;" parent="C3Bd5nNhJZMPWf8011Kq-5" vertex="1">
          <mxGeometry x="2280" y="13" width="120" height="80" as="geometry" />
        </mxCell>
        <mxCell id="30ngk3Q0lwv7aPMlWF68-73" style="edgeStyle=orthogonalEdgeStyle;rounded=0;orthogonalLoop=1;jettySize=auto;html=1;exitX=1;exitY=0.5;exitDx=0;exitDy=0;exitPerimeter=0;entryX=0;entryY=0.5;entryDx=0;entryDy=0;entryPerimeter=0;" parent="C3Bd5nNhJZMPWf8011Kq-5" source="30ngk3Q0lwv7aPMlWF68-70" target="30ngk3Q0lwv7aPMlWF68-72" edge="1">
          <mxGeometry relative="1" as="geometry" />
        </mxCell>
        <mxCell id="30ngk3Q0lwv7aPMlWF68-74" value="Процесс&lt;br&gt;завершен&lt;br&gt;" style="points=[[0.145,0.145,0],[0.5,0,0],[0.855,0.145,0],[1,0.5,0],[0.855,0.855,0],[0.5,1,0],[0.145,0.855,0],[0,0.5,0]];shape=mxgraph.bpmn.event;html=1;verticalLabelPosition=bottom;labelBackgroundColor=#ffffff;verticalAlign=top;align=center;perimeter=ellipsePerimeter;outlineConnect=0;aspect=fixed;outline=end;symbol=terminate;" parent="C3Bd5nNhJZMPWf8011Kq-5" vertex="1">
          <mxGeometry x="2500" y="28" width="50" height="50" as="geometry" />
        </mxCell>
        <mxCell id="30ngk3Q0lwv7aPMlWF68-75" style="edgeStyle=orthogonalEdgeStyle;rounded=0;orthogonalLoop=1;jettySize=auto;html=1;exitX=1;exitY=0.5;exitDx=0;exitDy=0;exitPerimeter=0;entryX=0;entryY=0.5;entryDx=0;entryDy=0;entryPerimeter=0;" parent="C3Bd5nNhJZMPWf8011Kq-5" source="30ngk3Q0lwv7aPMlWF68-72" target="30ngk3Q0lwv7aPMlWF68-74" edge="1">
          <mxGeometry relative="1" as="geometry" />
        </mxCell>
        <mxCell id="C3Bd5nNhJZMPWf8011Kq-42" style="edgeStyle=orthogonalEdgeStyle;rounded=0;orthogonalLoop=1;jettySize=auto;html=1;exitX=0.5;exitY=1;exitDx=0;exitDy=0;exitPerimeter=0;" parent="C3Bd5nNhJZMPWf8011Kq-1" source="C3Bd5nNhJZMPWf8011Kq-39" target="C3Bd5nNhJZMPWf8011Kq-41" edge="1">
          <mxGeometry relative="1" as="geometry" />
        </mxCell>
        <mxCell id="30ngk3Q0lwv7aPMlWF68-4" style="edgeStyle=orthogonalEdgeStyle;rounded=0;orthogonalLoop=1;jettySize=auto;html=1;exitX=0.5;exitY=0;exitDx=0;exitDy=0;exitPerimeter=0;" parent="C3Bd5nNhJZMPWf8011Kq-1" source="30ngk3Q0lwv7aPMlWF68-1" target="30ngk3Q0lwv7aPMlWF68-3" edge="1">
          <mxGeometry relative="1" as="geometry" />
        </mxCell>
        <mxCell id="C3Bd5nNhJZMPWf8011Kq-6" value="Отдел доставки&lt;br&gt;" style="swimlane;html=1;startSize=20;fontStyle=0;collapsible=0;horizontal=0;swimlaneLine=1;swimlaneFillColor=#ffffff;strokeWidth=2;whiteSpace=wrap;" parent="C3Bd5nNhJZMPWf8011Kq-1" vertex="1">
          <mxGeometry x="21" y="879" width="3159" height="180" as="geometry" />
        </mxCell>
        <mxCell id="30ngk3Q0lwv7aPMlWF68-59" value="Получение команды&lt;br&gt;на отгрузку" style="points=[[0.145,0.145,0],[0.5,0,0],[0.855,0.145,0],[1,0.5,0],[0.855,0.855,0],[0.5,1,0],[0.145,0.855,0],[0,0.5,0]];shape=mxgraph.bpmn.event;html=1;verticalLabelPosition=bottom;labelBackgroundColor=#ffffff;verticalAlign=top;align=center;perimeter=ellipsePerimeter;outlineConnect=0;aspect=fixed;outline=standard;symbol=message;" parent="C3Bd5nNhJZMPWf8011Kq-6" vertex="1">
          <mxGeometry x="2725" y="29" width="50" height="50" as="geometry" />
        </mxCell>
        <mxCell id="30ngk3Q0lwv7aPMlWF68-61" value="Доставить&lt;br&gt;кондитерские изделия заказчику" style="points=[[0.25,0,0],[0.5,0,0],[0.75,0,0],[1,0.25,0],[1,0.5,0],[1,0.75,0],[0.75,1,0],[0.5,1,0],[0.25,1,0],[0,0.75,0],[0,0.5,0],[0,0.25,0]];shape=mxgraph.bpmn.task;whiteSpace=wrap;rectStyle=rounded;size=10;html=1;container=1;expand=0;collapsible=0;taskMarker=manual;" parent="C3Bd5nNhJZMPWf8011Kq-6" vertex="1">
          <mxGeometry x="2865" y="14" width="120" height="80" as="geometry" />
        </mxCell>
        <mxCell id="30ngk3Q0lwv7aPMlWF68-63" style="edgeStyle=orthogonalEdgeStyle;rounded=0;orthogonalLoop=1;jettySize=auto;html=1;exitX=1;exitY=0.5;exitDx=0;exitDy=0;exitPerimeter=0;entryX=0;entryY=0.5;entryDx=0;entryDy=0;entryPerimeter=0;" parent="C3Bd5nNhJZMPWf8011Kq-6" source="30ngk3Q0lwv7aPMlWF68-59" target="30ngk3Q0lwv7aPMlWF68-61" edge="1">
          <mxGeometry relative="1" as="geometry" />
        </mxCell>
        <mxCell id="30ngk3Q0lwv7aPMlWF68-65" value="Заявка выполнена" style="points=[[0.145,0.145,0],[0.5,0,0],[0.855,0.145,0],[1,0.5,0],[0.855,0.855,0],[0.5,1,0],[0.145,0.855,0],[0,0.5,0]];shape=mxgraph.bpmn.event;html=1;verticalLabelPosition=bottom;labelBackgroundColor=#ffffff;verticalAlign=top;align=center;perimeter=ellipsePerimeter;outlineConnect=0;aspect=fixed;outline=end;symbol=terminate2;" parent="C3Bd5nNhJZMPWf8011Kq-6" vertex="1">
          <mxGeometry x="3060" y="29" width="50" height="50" as="geometry" />
        </mxCell>
        <mxCell id="30ngk3Q0lwv7aPMlWF68-66" style="edgeStyle=orthogonalEdgeStyle;rounded=0;orthogonalLoop=1;jettySize=auto;html=1;exitX=1;exitY=0.5;exitDx=0;exitDy=0;exitPerimeter=0;entryX=0;entryY=0.5;entryDx=0;entryDy=0;entryPerimeter=0;" parent="C3Bd5nNhJZMPWf8011Kq-6" source="30ngk3Q0lwv7aPMlWF68-61" target="30ngk3Q0lwv7aPMlWF68-65" edge="1">
          <mxGeometry relative="1" as="geometry" />
        </mxCell>
        <mxCell id="30ngk3Q0lwv7aPMlWF68-15" style="edgeStyle=orthogonalEdgeStyle;rounded=0;orthogonalLoop=1;jettySize=auto;html=1;exitX=0.5;exitY=0;exitDx=0;exitDy=0;exitPerimeter=0;entryX=0.5;entryY=1;entryDx=0;entryDy=0;entryPerimeter=0;" parent="C3Bd5nNhJZMPWf8011Kq-1" source="30ngk3Q0lwv7aPMlWF68-8" target="30ngk3Q0lwv7aPMlWF68-10" edge="1">
          <mxGeometry relative="1" as="geometry" />
        </mxCell>
        <mxCell id="30ngk3Q0lwv7aPMlWF68-35" style="edgeStyle=orthogonalEdgeStyle;rounded=0;orthogonalLoop=1;jettySize=auto;html=1;exitX=0.5;exitY=1;exitDx=0;exitDy=0;exitPerimeter=0;dashed=1;" parent="C3Bd5nNhJZMPWf8011Kq-1" source="30ngk3Q0lwv7aPMlWF68-18" target="30ngk3Q0lwv7aPMlWF68-34" edge="1">
          <mxGeometry relative="1" as="geometry" />
        </mxCell>
        <mxCell id="30ngk3Q0lwv7aPMlWF68-46" style="edgeStyle=orthogonalEdgeStyle;rounded=0;orthogonalLoop=1;jettySize=auto;html=1;exitX=0.5;exitY=0;exitDx=0;exitDy=0;exitPerimeter=0;entryX=0.5;entryY=1;entryDx=0;entryDy=0;entryPerimeter=0;" parent="C3Bd5nNhJZMPWf8011Kq-1" source="30ngk3Q0lwv7aPMlWF68-42" target="30ngk3Q0lwv7aPMlWF68-45" edge="1">
          <mxGeometry relative="1" as="geometry" />
        </mxCell>
        <mxCell id="30ngk3Q0lwv7aPMlWF68-60" style="edgeStyle=orthogonalEdgeStyle;rounded=0;orthogonalLoop=1;jettySize=auto;html=1;exitX=0.5;exitY=1;exitDx=0;exitDy=0;exitPerimeter=0;entryX=0.5;entryY=0;entryDx=0;entryDy=0;entryPerimeter=0;" parent="C3Bd5nNhJZMPWf8011Kq-1" source="30ngk3Q0lwv7aPMlWF68-56" target="30ngk3Q0lwv7aPMlWF68-59" edge="1">
          <mxGeometry relative="1" as="geometry" />
        </mxCell>
        <mxCell id="30ngk3Q0lwv7aPMlWF68-71" style="edgeStyle=orthogonalEdgeStyle;rounded=0;orthogonalLoop=1;jettySize=auto;html=1;exitX=0.5;exitY=1;exitDx=0;exitDy=0;exitPerimeter=0;entryX=0.5;entryY=0;entryDx=0;entryDy=0;entryPerimeter=0;" parent="C3Bd5nNhJZMPWf8011Kq-1" source="30ngk3Q0lwv7aPMlWF68-68" target="30ngk3Q0lwv7aPMlWF68-70" edge="1">
          <mxGeometry relative="1" as="geometry" />
        </mxCell>
        <mxCell id="30ngk3Q0lwv7aPMlWF68-85" style="edgeStyle=orthogonalEdgeStyle;rounded=0;orthogonalLoop=1;jettySize=auto;html=1;exitX=0.5;exitY=0;exitDx=0;exitDy=0;exitPerimeter=0;" parent="C3Bd5nNhJZMPWf8011Kq-1" source="30ngk3Q0lwv7aPMlWF68-80" target="30ngk3Q0lwv7aPMlWF68-82" edge="1">
          <mxGeometry relative="1" as="geometry" />
        </mxCell>
        <mxCell id="6L4qWWEej8NQcM-y__Ho-4" style="edgeStyle=orthogonalEdgeStyle;rounded=0;orthogonalLoop=1;jettySize=auto;html=1;exitX=0.5;exitY=1;exitDx=0;exitDy=0;exitPerimeter=0;" edge="1" parent="C3Bd5nNhJZMPWf8011Kq-1" source="6L4qWWEej8NQcM-y__Ho-1" target="30ngk3Q0lwv7aPMlWF68-52">
          <mxGeometry relative="1" as="geometry" />
        </mxCell>
        <mxCell id="6L4qWWEej8NQcM-y__Ho-8" style="edgeStyle=orthogonalEdgeStyle;rounded=0;orthogonalLoop=1;jettySize=auto;html=1;exitX=0.5;exitY=1;exitDx=0;exitDy=0;exitPerimeter=0;entryX=1;entryY=0.5;entryDx=0;entryDy=0;entryPerimeter=0;" edge="1" parent="C3Bd5nNhJZMPWf8011Kq-1" source="30ngk3Q0lwv7aPMlWF68-86" target="6L4qWWEej8NQcM-y__Ho-5">
          <mxGeometry relative="1" as="geometry" />
        </mxCell>
      </root>
    </mxGraphModel>
  </diagram>
</mxfile>
